<svg xmlns="http://www.w3.org/2000/svg" style="display: none">
  <symbol id="user" viewBox="0 0 24 24">
    <path fill="currentColor" d="M12 2a5 5 0 1 0 5 5a5 5 0 0 0-5-5m0 8a3 3 0 1 1 3-3a3 3 0 0 1-3 3m9 11v-1a7 7 0 0 0-7-7h-4a7 7 0 0 0-7 7v1h2v-1a5 5 0 0 1 5-5h4a5 5 0 0 1 5 5v1z"/>
  </symbol>

  <symbol id="comment" viewBox="0 0 24 24">
    <path fill="currentColor" d="M7 7h10v2H7zm0 4h7v2H7z"/><path fill="currentColor" d="M20 2H4c-1.103 0-2 .897-2 2v18l5.333-4H20c1.103 0 2-.897 2-2V4c0-1.103-.897-2-2-2m0 14H6.667L4 18V4h16z"/>
  </symbol>

  <symbol id="like" viewBox="0 0 24 24">
    <path fill="currentColor" d="M20 8h-5.612l1.123-3.367c.202-.608.1-1.282-.275-1.802S14.253 2 13.612 2H12c-.297 0-.578.132-.769.36L6.531 8H4c-1.103 0-2 .897-2 2v9c0 1.103.897 2 2 2h13.307a2.01 2.01 0 0 0 1.873-1.298l2.757-7.351A1 1 0 0 0 22 12v-2c0-1.103-.897-2-2-2M4 10h2v9H4zm16 1.819L17.307 19H8V9.362L12.468 4h1.146l-1.562 4.683A.998.998 0 0 0 13 10h7z"/>
  </symbol>

  <symbol id="dislike" viewBox="0 0 24 24">
    <path fill="currentColor" d="M20 3H6.693A2.01 2.01 0 0 0 4.82 4.298l-2.757 7.351A1 1 0 0 0 2 12v2c0 1.103.897 2 2 2h5.612L8.49 19.367a2.004 2.004 0 0 0 .274 1.802c.376.52.982.831 1.624.831H12c.297 0 .578-.132.769-.36l4.7-5.64H20c1.103 0 2-.897 2-2V5c0-1.103-.897-2-2-2m-8.469 17h-1.145l1.562-4.684A1 1 0 0 0 11 14H4v-1.819L6.693 5H16v9.638zM18 14V5h2l.001 9z"/>
  </symbol>

  <symbol id="user-circle" viewBox="0 0 24 24">
    <path fill="currentColor" d="M12 2A10.13 10.13 0 0 0 2 12a10 10 0 0 0 4 7.92V20h.1a9.7 9.7 0 0 0 11.8 0h.1v-.08A10 10 0 0 0 22 12A10.13 10.13 0 0 0 12 2M8.07 18.93A3 3 0 0 1 11 16.57h2a3 3 0 0 1 2.93 2.36a7.75 7.75 0 0 1-7.86 0m9.54-1.29A5 5 0 0 0 13 14.57h-2a5 5 0 0 0-4.61 3.07A8 8 0 0 1 4 12a8.1 8.1 0 0 1 8-8a8.1 8.1 0 0 1 8 8a8 8 0 0 1-2.39 5.64"/><path fill="currentColor" d="M12 6a3.91 3.91 0 0 0-4 4a3.91 3.91 0 0 0 4 4a3.91 3.91 0 0 0 4-4a3.91 3.91 0 0 0-4-4m0 6a1.91 1.91 0 0 1-2-2a1.91 1.91 0 0 1 2-2a1.91 1.91 0 0 1 2 2a1.91 1.91 0 0 1-2 2"/>
  </symbol>

  <symbol id="new-post" viewBox="0 0 24 24">
    <path d="M16 2.012l3 3L16.713 7.3l-3-3zM4 14v3h3l8.299-8.287l-3-3zm0 6h16v2H4z" fill="currentColor"/>
  </symbol>

  <symbol id="settings" viewBox="0 0 24 24">
    <path fill="currentColor" d="M12 16c2.206 0 4-1.794 4-4s-1.794-4-4-4s-4 1.794-4 4s1.794 4 4 4m0-6c1.084 0 2 .916 2 2s-.916 2-2 2s-2-.916-2-2s.916-2 2-2"/><path fill="currentColor" d="m2.845 16.136l1 1.73c.531.917 1.809 1.261 2.73.73l.529-.306A8.1 8.1 0 0 0 9 19.402V20c0 1.103.897 2 2 2h2c1.103 0 2-.897 2-2v-.598a8.132 8.132 0 0 0 1.896-1.111l.529.306c.923.53 2.198.188 2.731-.731l.999-1.729a2.001 2.001 0 0 0-.731-2.732l-.505-.292a7.718 7.718 0 0 0 0-2.224l.505-.292a2.002 2.002 0 0 0 .731-2.732l-.999-1.729c-.531-.92-1.808-1.265-2.731-.732l-.529.306A8.1 8.1 0 0 0 15 4.598V4c0-1.103-.897-2-2-2h-2c-1.103 0-2 .897-2 2v.598a8.132 8.132 0 0 0-1.896 1.111l-.529-.306c-.924-.531-2.2-.187-2.731.732l-.999 1.729a2.001 2.001 0 0 0 .731 2.732l.505.292a7.683 7.683 0 0 0 0 2.223l-.505.292a2.003 2.003 0 0 0-.731 2.733m3.326-2.758A5.703 5.703 0 0 1 6 12c0-.462.058-.926.17-1.378a.999.999 0 0 0-.47-1.108l-1.123-.65l.998-1.729l1.145.662a.997.997 0 0 0 1.188-.142a6.071 6.071 0 0 1 2.384-1.399A1 1 0 0 0 11 5.3V4h2v1.3a1 1 0 0 0 .708.956a6.083 6.083 0 0 1 2.384 1.399a.999.999 0 0 0 1.188.142l1.144-.661l1 1.729l-1.124.649a1 1 0 0 0-.47 1.108c.112.452.17.916.17 1.378c0 .461-.058.925-.171 1.378a1 1 0 0 0 .471 1.108l1.123.649l-.998 1.729l-1.145-.661a.996.996 0 0 0-1.188.142a6.071 6.071 0 0 1-2.384 1.399A1 1 0 0 0 13 18.7l.002 1.3H11v-1.3a1 1 0 0 0-.708-.956a6.083 6.083 0 0 1-2.384-1.399a.992.992 0 0 0-1.188-.141l-1.144.662l-1-1.729l1.124-.651a1 1 0 0 0 .471-1.108"/>
  </symbol>

  <symbol id="log-out" viewBox="0 0 24 24">
    <path fill="currentColor" d="M16 13v-2H7V8l-5 4l5 4v-3z"/><path fill="currentColor" d="M20 3h-9c-1.103 0-2 .897-2 2v4h2V5h9v14h-9v-4H9v4c0 1.103.897 2 2 2h9c1.103 0 2-.897 2-2V5c0-1.103-.897-2-2-2"/>
  </symbol>

  <symbol id="send" viewBox="0 0 24 24">
    <path fill="currentColor" d="m21.426 11.095l-17-8A.999.999 0 0 0 3.03 4.242L4.969 12L3.03 19.758a.998.998 0 0 0 1.396 1.147l17-8a1 1 0 0 0 0-1.81M5.481 18.197l.839-3.357L12 12L6.32 9.16l-.839-3.357L18.651 12z"/>
  </symbol>

  <symbol id="left-arrow" viewBox="0 0 24 24">
    <path fill="currentColor" d="M18.464 2.114a.998.998 0 0 0-1.033.063l-13 9a1.003 1.003 0 0 0 0 1.645l13 9A1 1 0 0 0 19 21V3a1 1 0 0 0-.536-.886M17 19.091L6.757 12L17 4.909z"/>
  </symbol>

  <symbol id="right-arrow" viewBox="0 0 24 24">
    <path fill="currentColor" d="M5.536 21.886a1.004 1.004 0 0 0 1.033-.064l13-9a1 1 0 0 0 0-1.644l-13-9A.998.998 0 0 0 5 3v18a1 1 0 0 0 .536.886M7 4.909L17.243 12L7 19.091z"/>
  </symbol>

  <symbol id="tag" viewBox="0 0 24 24">
    <path fill="currentColor" d="M20 4H8.515a2 2 0 0 0-1.627.838l-4.701 6.581a.997.997 0 0 0 0 1.162l4.701 6.581A2 2 0 0 0 8.515 20H20c1.103 0 2-.897 2-2V6c0-1.103-.897-2-2-2m0 14H8.515l-4.286-6l4.286-6H20z"/>
  </symbol>

  <symbol id="feed" viewBox="0 0 24 24">
    <path fill="currentColor" d="M19 10H5c-1.103 0-2 .897-2 2v8c0 1.103.897 2 2 2h14c1.103 0 2-.897 2-2v-8c0-1.103-.897-2-2-2M5 20v-8h14l.002 8zM5 6h14v2H5zm2-4h10v2H7z"/>
  </symbol>
</svg>